<?xml version="1.0" encoding="UTF-8"?><svg xmlns="http://www.w3.org/2000/svg" xmlns:xlink="http://www.w3.org/1999/xlink" fill-opacity="1" color-rendering="auto" color-interpolation="auto" text-rendering="auto" stroke="black" stroke-linecap="square" width="634" stroke-miterlimit="10" shape-rendering="auto" stroke-opacity="1" fill="black" stroke-dasharray="none" font-weight="normal" stroke-width="1" height="301" font-family="'Dialog'" font-style="normal" stroke-linejoin="miter" font-size="12px" stroke-dashoffset="0" image-rendering="auto">
  <!--Generated by ySVG 2.5-->
  <defs id="genericDefs"/>
  <g>
    <defs id="defs1">
      <clipPath clipPathUnits="userSpaceOnUse" id="clipPath1">
        <path d="M0 0 L634 0 L634 301 L0 301 L0 0 Z"/>
      </clipPath>
      <clipPath clipPathUnits="userSpaceOnUse" id="clipPath2">
        <path d="M122 61 L756 61 L756 362 L122 362 L122 61 Z"/>
      </clipPath>
      <clipPath clipPathUnits="userSpaceOnUse" id="clipPath3">
        <path d="M175.7478 -321.5516 L175.7478 312.4484 L-125.2522 312.4484 L-125.2522 -321.5516 L175.7478 -321.5516 Z"/>
      </clipPath>
    </defs>
    <g fill="white" text-rendering="geometricPrecision" shape-rendering="geometricPrecision" transform="translate(-122,-61)" stroke="white">
      <rect x="122" width="634" height="301" y="61" clip-path="url(#clipPath2)" stroke="none"/>
    </g>
    <g fill="rgb(245,245,245)" text-rendering="geometricPrecision" shape-rendering="geometricPrecision" transform="matrix(1,0,0,1,-122,-61)" stroke="rgb(245,245,245)">
      <rect x="137" y="117.5703" clip-path="url(#clipPath2)" width="257" rx="4" ry="4" height="229.3984" stroke="none"/>
      <rect x="137" y="117.5703" clip-path="url(#clipPath2)" fill="rgb(235,235,235)" width="257" height="21.4609" stroke="none"/>
    </g>
    <g font-size="15px" stroke-linecap="butt" transform="matrix(1,0,0,1,-122,-61)" text-rendering="geometricPrecision" font-family="sans-serif" shape-rendering="geometricPrecision" stroke-miterlimit="1.45">
      <text x="333.6919" xml:space="preserve" y="133.4937" clip-path="url(#clipPath2)" stroke="none">Arduino</text>
      <rect x="137" y="117.5703" clip-path="url(#clipPath2)" fill="none" width="257" stroke-dasharray="6,2" rx="4" ry="4" height="229.3984"/>
      <rect fill="none" x="152" width="227" height="35" y="249" clip-path="url(#clipPath2)"/>
      <text x="212.0771" font-size="12px" y="270.6543" clip-path="url(#clipPath2)" stroke="none" font-weight="bold" xml:space="preserve">Wemos D1 MINI</text>
      <rect fill="none" x="152" width="51" height="30" y="301" clip-path="url(#clipPath2)"/>
      <text x="157.0684" xml:space="preserve" font-size="12px" y="320.1543" clip-path="url(#clipPath2)" stroke="none">DHT22</text>
      <rect fill="none" x="215" width="51" height="30" y="301" clip-path="url(#clipPath2)"/>
      <text x="220.0684" xml:space="preserve" font-size="12px" y="320.1543" clip-path="url(#clipPath2)" stroke="none">DHT22</text>
      <rect fill="none" x="278" width="101" height="30" y="301" clip-path="url(#clipPath2)"/>
      <text x="284.2002" xml:space="preserve" font-size="12px" y="313.1699" clip-path="url(#clipPath2)" stroke="none">Capacitive Soil</text>
      <text x="280.0723" xml:space="preserve" font-size="12px" y="327.1387" clip-path="url(#clipPath2)" stroke="none">Moisture Sensor</text>
      <rect fill="none" x="152" width="78.96" height="30" y="202" clip-path="url(#clipPath2)"/>
      <text x="154.188" xml:space="preserve" font-size="12px" y="221.1543" clip-path="url(#clipPath2)" stroke="none">Water pump</text>
      <rect fill="none" x="256.26" width="122.74" height="30" y="202" clip-path="url(#clipPath2)"/>
      <text x="273.2657" xml:space="preserve" font-size="12px" y="214.1699" clip-path="url(#clipPath2)" stroke="none">Power Charger</text>
      <text x="299.8907" xml:space="preserve" font-size="12px" y="228.1387" clip-path="url(#clipPath2)" stroke="none">Board</text>
      <rect fill="none" x="250.5" width="57.656" height="30" y="155" clip-path="url(#clipPath2)"/>
      <text x="257.121" xml:space="preserve" font-size="12px" y="174.1543" clip-path="url(#clipPath2)" stroke="none">Battery</text>
      <rect fill="none" x="321.344" width="57.656" height="30" y="155" clip-path="url(#clipPath2)"/>
      <text x="334.882" xml:space="preserve" font-size="12px" y="167.1699" clip-path="url(#clipPath2)" stroke="none">Solar</text>
      <text x="333.5255" xml:space="preserve" font-size="12px" y="181.1387" clip-path="url(#clipPath2)" stroke="none">panel</text>
      <path fill="none" d="M177.5 301 L177.5 292.0266" clip-path="url(#clipPath2)"/>
      <path d="M177.5 284.0266 L172.5 296.0266 L177.5 293.0266 L182.5 296.0266 Z" stroke="none" clip-path="url(#clipPath2)"/>
      <path fill="none" d="M240.5 301 L240.5 292.0277" clip-path="url(#clipPath2)"/>
      <path d="M240.5 284.0277 L235.5 296.0277 L240.5 293.0277 L245.5 296.0277 Z" stroke="none" clip-path="url(#clipPath2)"/>
      <path fill="none" d="M328.5 301 L328.5 292.0014" clip-path="url(#clipPath2)"/>
      <path d="M328.5 284.0014 L323.5 296.0014 L328.5 293.0014 L333.5 296.0014 Z" stroke="none" clip-path="url(#clipPath2)"/>
      <path fill="none" d="M191.48 249.044 L191.48 240" clip-path="url(#clipPath2)"/>
      <path d="M191.48 232 L186.48 244 L191.48 241 L196.48 244 Z" stroke="none" clip-path="url(#clipPath2)"/>
      <path fill="none" d="M317.63 232 L317.63 240.9874" clip-path="url(#clipPath2)"/>
      <path d="M317.63 248.9874 L322.63 236.9874 L317.63 239.9874 L312.63 236.9874 Z" stroke="none" clip-path="url(#clipPath2)"/>
      <path fill="none" d="M256.26 217 L238.96 217" clip-path="url(#clipPath2)"/>
      <path d="M230.96 217 L242.96 222 L239.96 217 L242.96 212 Z" stroke="none" clip-path="url(#clipPath2)"/>
      <path fill="none" d="M279.328 185 L279.328 201.9828" clip-path="url(#clipPath2)"/>
      <path fill="none" d="M350.6004 185 L350.8571 193.9869" clip-path="url(#clipPath2)"/>
      <path d="M351.0854 201.9837 L355.7408 189.8458 L350.8285 192.9873 L345.7449 190.1313 Z" stroke="none" clip-path="url(#clipPath2)"/>
    </g>
    <g fill="rgb(245,245,245)" text-rendering="geometricPrecision" shape-rendering="geometricPrecision" transform="matrix(1,0,0,1,-122,-61)" stroke="rgb(245,245,245)">
      <rect x="530.536" y="76.5391" clip-path="url(#clipPath2)" width="209.6" rx="4" ry="4" height="269.4609" stroke="none"/>
      <rect x="530.536" y="76.5391" clip-path="url(#clipPath2)" fill="rgb(235,235,235)" width="209.6" height="21.4609" stroke="none"/>
    </g>
    <g font-size="15px" stroke-linecap="butt" transform="matrix(1,0,0,1,-122,-61)" text-rendering="geometricPrecision" font-family="sans-serif" shape-rendering="geometricPrecision" stroke-miterlimit="1.45">
      <text x="688.9465" xml:space="preserve" y="92.4624" clip-path="url(#clipPath2)" stroke="none">Server</text>
      <rect x="530.536" y="76.5391" clip-path="url(#clipPath2)" fill="none" width="209.6" stroke-dasharray="6,2" rx="4" ry="4" height="269.4609"/>
      <rect fill="none" x="545.536" width="86" height="30" y="160" clip-path="url(#clipPath2)"/>
      <text x="558.9081" xml:space="preserve" font-size="12px" y="179.1543" clip-path="url(#clipPath2)" stroke="none">Mosquitto</text>
      <rect fill="none" x="545.536" width="179.6" height="30" y="207" clip-path="url(#clipPath2)"/>
      <text x="601.4483" font-size="12px" y="226.1543" clip-path="url(#clipPath2)" stroke="none" font-weight="bold" xml:space="preserve">Controller</text>
      <rect fill="none" x="545.536" width="179.6" height="30" y="254" clip-path="url(#clipPath2)"/>
      <text x="606.7071" xml:space="preserve" font-size="12px" y="273.1543" clip-path="url(#clipPath2)" stroke="none">Database</text>
      <rect fill="none" x="545.536" width="179.6" height="30" y="113" clip-path="url(#clipPath2)"/>
      <text x="576.5694" xml:space="preserve" font-size="12px" y="132.1543" clip-path="url(#clipPath2)" stroke="none">Notification-Service</text>
      <rect fill="none" x="639.136" width="86" height="30" y="160" clip-path="url(#clipPath2)"/>
      <text x="665.6741" xml:space="preserve" font-size="12px" y="179.1543" clip-path="url(#clipPath2)" stroke="none">Redis</text>
      <rect fill="none" x="545.536" width="179.6" height="30" y="301" clip-path="url(#clipPath2)"/>
      <text x="602.6788" xml:space="preserve" font-size="12px" y="320.1543" clip-path="url(#clipPath2)" stroke="none">Dashboard</text>
      <path fill="none" d="M379 266.5 L458.936 266.5 L458.936 175 L545.536 175" clip-path="url(#clipPath2)"/>
    </g>
    <g text-rendering="geometricPrecision" stroke-miterlimit="1.45" shape-rendering="geometricPrecision" font-family="sans-serif" transform="matrix(0,-1,1,0,321.5516,175.7478)" stroke-linecap="butt">
      <text x="2" xml:space="preserve" y="13.1387" clip-path="url(#clipPath3)" stroke="none">WiFi</text>
    </g>
    <g text-rendering="geometricPrecision" stroke-miterlimit="1.45" shape-rendering="geometricPrecision" transform="matrix(1,0,0,1,-122,-61)" stroke-linecap="butt">
      <path fill="none" d="M588.536 207.003 L588.536 190" clip-path="url(#clipPath2)"/>
      <path fill="none" d="M635.336 237 L635.336 246" clip-path="url(#clipPath2)"/>
      <path d="M635.336 254 L640.336 242 L635.336 245 L630.336 242 Z" clip-path="url(#clipPath2)" stroke="none"/>
      <path fill="none" d="M588.536 160 L588.536 151.0143" clip-path="url(#clipPath2)"/>
      <path d="M588.536 143.0143 L583.536 155.0143 L588.536 152.0143 L593.536 155.0143 Z" clip-path="url(#clipPath2)" stroke="none"/>
      <path fill="none" d="M682.136 160 L682.136 151.0136" clip-path="url(#clipPath2)"/>
      <path d="M682.136 143.0136 L677.136 155.0136 L682.136 152.0136 L687.136 155.0136 Z" clip-path="url(#clipPath2)" stroke="none"/>
      <path fill="none" d="M682.136 190 L682.136 198.993" clip-path="url(#clipPath2)"/>
      <path d="M682.136 206.993 L687.136 194.993 L682.136 197.993 L677.136 194.993 Z" clip-path="url(#clipPath2)" stroke="none"/>
      <path fill="none" d="M635.336 284 L635.336 293" clip-path="url(#clipPath2)"/>
      <path d="M635.336 301 L640.336 289 L635.336 292 L630.336 289 Z" clip-path="url(#clipPath2)" stroke="none"/>
    </g>
  </g>
</svg>
